<svg width="25" height="24" viewBox="0 0 25 24" fill="none" xmlns="http://www.w3.org/2000/svg">
<path d="M17.0999 20H5.29993C4.88993 20 4.54993 19.66 4.54993 19.25C4.54993 18.84 4.88993 18.5 5.29993 18.5H17.0999C18.1099 18.5 18.4499 18.29 18.4499 17.02V15.98C18.4499 14.71 18.1099 14.5 17.0999 14.5H5.29993C4.88993 14.5 4.54993 14.16 4.54993 13.75C4.54993 13.34 4.88993 13 5.29993 13H17.0999C19.0199 13 19.9499 13.98 19.9499 15.98V17.02C19.9499 19.02 19.0199 20 17.0999 20Z" fill="#F6F7F7"/>
<path d="M12.0999 11.5H5.29993C4.88993 11.5 4.54993 11.16 4.54993 10.75C4.54993 10.34 4.88993 10 5.29993 10H12.0999C13.1099 10 13.4499 9.79 13.4499 8.52V7.48C13.4499 6.21 13.1099 6 12.0999 6H5.29993C4.88993 6 4.54993 5.66 4.54993 5.25C4.54993 4.84 4.88993 4.5 5.29993 4.5H12.0999C14.0199 4.5 14.9499 5.48 14.9499 7.48V8.52C14.9499 10.52 14.0199 11.5 12.0999 11.5Z" fill="#F6F7F7"/>
<path d="M5.19995 22.74C4.78995 22.74 4.44995 22.4 4.44995 21.99V1.98999C4.44995 1.57999 4.78995 1.23999 5.19995 1.23999C5.60995 1.23999 5.94995 1.57999 5.94995 1.98999V21.99C5.94995 22.4 5.60995 22.74 5.19995 22.74Z" fill="#F6F7F7"/>
</svg>
