<svg width="25" height="24" viewBox="0 0 25 24" fill="none" xmlns="http://www.w3.org/2000/svg">
<path d="M19.5 20H7.69998C5.77998 20 4.84998 19.02 4.84998 17.02V15.98C4.84998 13.98 5.77998 13 7.69998 13H19.5C19.91 13 20.25 13.34 20.25 13.75C20.25 14.16 19.91 14.5 19.5 14.5H7.69998C6.68998 14.5 6.34998 14.71 6.34998 15.98V17.02C6.34998 18.29 6.68998 18.5 7.69998 18.5H19.5C19.91 18.5 20.25 18.84 20.25 19.25C20.25 19.66 19.91 20 19.5 20Z" fill="#F6F7F7"/>
<path d="M19.5 11.5H12.7C10.78 11.5 9.84998 10.52 9.84998 8.52V7.48C9.84998 5.47 10.78 4.5 12.7 4.5H19.5C19.91 4.5 20.25 4.84 20.25 5.25C20.25 5.66 19.91 6 19.5 6H12.7C11.69 6 11.35 6.21 11.35 7.48V8.52C11.35 9.79 11.69 10 12.7 10H19.5C19.91 10 20.25 10.34 20.25 10.75C20.25 11.16 19.91 11.5 19.5 11.5Z" fill="#F6F7F7"/>
<path d="M19.6 22.74C19.19 22.74 18.85 22.4 18.85 21.99V1.98999C18.85 1.57999 19.19 1.23999 19.6 1.23999C20.01 1.23999 20.35 1.57999 20.35 1.98999V21.99C20.35 22.4 20.01 22.74 19.6 22.74Z" fill="#F6F7F7"/>
</svg>
