<svg width="25" height="24" viewBox="0 0 25 24" fill="none" xmlns="http://www.w3.org/2000/svg">
<path d="M20.0599 19.65C19.6499 19.65 19.3099 19.31 19.3099 18.9V7.1C19.3099 6.09 19.0999 5.75 17.8299 5.75H16.7899C15.5199 5.75 15.3099 6.09 15.3099 7.1V18.9C15.3099 19.31 14.9699 19.65 14.5599 19.65C14.1499 19.65 13.8099 19.31 13.8099 18.9V7.1C13.8099 5.18 14.7899 4.25 16.7899 4.25H17.8299C19.8399 4.25 20.8099 5.18 20.8099 7.1V18.9C20.8099 19.31 20.4699 19.65 20.0599 19.65Z" fill="#F6F7F7"/>
<path d="M11.5599 19.65C11.1499 19.65 10.8099 19.31 10.8099 18.9V12.1C10.8099 11.09 10.5999 10.75 9.32994 10.75H8.28994C7.01994 10.75 6.80994 11.09 6.80994 12.1V18.9C6.80994 19.31 6.46994 19.65 6.05994 19.65C5.64994 19.65 5.30994 19.31 5.30994 18.9V12.1C5.30994 10.18 6.28994 9.25 8.28994 9.25H9.32994C11.3399 9.25 12.3099 10.18 12.3099 12.1V18.9C12.3099 19.31 11.9699 19.65 11.5599 19.65Z" fill="#F6F7F7"/>
<path d="M22.7999 19.75H2.79993C2.38993 19.75 2.04993 19.41 2.04993 19C2.04993 18.59 2.37993 18.25 2.79993 18.25H22.7999C23.2099 18.25 23.5499 18.59 23.5499 19C23.5499 19.41 23.2199 19.75 22.7999 19.75Z" fill="#F6F7F7"/>
</svg>
