<svg width="25" height="24" viewBox="0 0 25 24" fill="none" xmlns="http://www.w3.org/2000/svg">
<path d="M17.4299 19.75H16.3899C14.3799 19.75 13.4099 18.82 13.4099 16.9V5.09998C13.4099 4.68998 13.7499 4.34998 14.1599 4.34998C14.5699 4.34998 14.9099 4.68998 14.9099 5.09998V16.9C14.9099 17.91 15.1199 18.25 16.3899 18.25H17.4299C18.6999 18.25 18.9099 17.91 18.9099 16.9V5.09998C18.9099 4.68998 19.2499 4.34998 19.6599 4.34998C20.0699 4.34998 20.4099 4.68998 20.4099 5.09998V16.9C20.4099 18.82 19.4399 19.75 17.4299 19.75Z" fill="#F6F7F7"/>
<path d="M8.92991 14.75H7.88991C5.87991 14.75 4.90991 13.82 4.90991 11.9V5.09998C4.90991 4.68998 5.24991 4.34998 5.65991 4.34998C6.06991 4.34998 6.40991 4.68998 6.40991 5.09998V11.9C6.40991 12.91 6.61991 13.25 7.88991 13.25H8.92991C10.1999 13.25 10.4099 12.91 10.4099 11.9V5.09998C10.4099 4.68998 10.7499 4.34998 11.1599 4.34998C11.5699 4.34998 11.9099 4.68998 11.9099 5.09998V11.9C11.9099 13.82 10.9399 14.75 8.92991 14.75Z" fill="#F6F7F7"/>
<path d="M22.3999 5.75H2.3999C1.9799 5.75 1.6499 5.41 1.6499 5C1.6499 4.59 1.9799 4.25 2.3999 4.25H22.3999C22.8099 4.25 23.1499 4.59 23.1499 5C23.1499 5.41 22.8199 5.75 22.3999 5.75Z" fill="#F6F7F7"/>
</svg>
