<svg width="24" height="24" viewBox="0 0 24 24" fill="none" xmlns="http://www.w3.org/2000/svg">
<path d="M15.15 17.0999H8.35C6.43 17.0999 5.5 16.1199 5.5 14.1199V10.08C5.5 8.06998 6.43 7.09998 8.35 7.09998H15.15C17.07 7.09998 18 8.07998 18 10.08V14.1199C18 16.1199 17.07 17.0999 15.15 17.0999ZM8.35 8.59998C7.34 8.59998 7 8.80998 7 10.08V14.1199C7 15.3899 7.34 15.5999 8.35 15.5999H15.15C16.16 15.5999 16.5 15.3899 16.5 14.1199V10.08C16.5 8.80998 16.16 8.59998 15.15 8.59998H8.35Z" fill="#F6F7F7"/>
<path d="M12 22.75C11.59 22.75 11.25 22.41 11.25 22V19.6C11.25 19.19 11.59 18.85 12 18.85C12.41 18.85 12.75 19.19 12.75 19.6V22C12.75 22.41 12.41 22.75 12 22.75Z" fill="#F6F7F7"/>
<path d="M1.875 11.375C1.465 11.375 1.125 11.715 1.125 12.125C1.125 12.535 1.455 12.875 1.875 12.875L6.9375 12.875L6.9375 11.375L1.875 11.375Z" fill="#F6F7F7"/>
<path d="M22.875 12.125C22.875 11.715 22.535 11.375 22.125 11.375L17.0625 11.375L17.0625 12.875L22.125 12.875C22.545 12.875 22.875 12.535 22.875 12.125Z" fill="#F6F7F7"/>
<path d="M11.25 22.25C11.25 22.66 11.59 23 12 23C12.41 23 12.75 22.67 12.75 22.25V17.1875H11.25L11.25 22.25Z" fill="#F6F7F7"/>
<path d="M12 1.25C11.59 1.25 11.25 1.59 11.25 2L11.25 7.0625H12.75V2C12.75 1.58 12.41 1.25 12 1.25Z" fill="#F6F7F7"/>
</svg>
