<svg width="28" height="28" viewBox="0 0 28 28" fill="none" xmlns="http://www.w3.org/2000/svg">
<g clip-path="url(#clip0_75_72)">
<path d="M6.14828 13.125H7.13994C7.61827 13.125 8.01494 13.5216 8.01494 14V16.7766C8.01494 19.4483 8.86661 20.2999 11.5383 20.2999H14.3149C14.7933 20.2999 15.1899 20.6966 15.1899 21.1749V22.1666C15.1899 25.8183 13.5683 27.4399 9.91661 27.4399H6.14828C2.49661 27.4399 0.874941 25.8183 0.874941 22.1666V18.3983C0.874941 14.7466 2.49661 13.125 6.14828 13.125ZM6.26494 14.875H6.14828C3.47661 14.875 2.62494 15.7266 2.62494 18.3983V22.1666C2.62494 24.8383 3.47661 25.6899 6.14828 25.6899H9.91661C12.5883 25.6899 13.4399 24.8383 13.4399 22.1666V22.0499H11.5383C7.88661 22.0499 6.26494 20.4283 6.26494 16.7766V14.875V14.875Z" fill="#F6F7F7"/>
<path fill-rule="evenodd" clip-rule="evenodd" d="M2.62491 20.1249L9.62491 26.2499L8.703 27.3035L1.703 21.1785L2.62491 20.1249Z" fill="#F6F7F7"/>
<path fill-rule="evenodd" clip-rule="evenodd" d="M2.62489 15.7499L13.1249 24.4999L12.2286 25.5754L1.72864 16.8254L2.62489 15.7499Z" fill="#F6F7F7"/>
</g>
<g clip-path="url(#clip1_75_72)">
<path d="M22.1667 14.315H21.175C20.6967 14.315 20.3 13.9183 20.3 13.44V10.6634C20.3 7.99168 19.4483 7.13999 16.7767 7.13999H14C13.5217 7.13999 13.125 6.74333 13.125 6.26499V5.27332C13.125 1.62165 14.7467 0 18.3983 0H22.1667C25.8183 0 27.44 1.62165 27.44 5.27332V9.04167C27.44 12.6933 25.8183 14.315 22.1667 14.315ZM22.05 12.565H22.1667C24.8383 12.565 25.69 11.7133 25.69 9.04167V5.27332C25.69 2.60165 24.8383 1.75 22.1667 1.75H18.3983C15.7267 1.75 14.875 2.60165 14.875 5.27332V5.38999H16.7767C20.4283 5.38999 22.05 7.01168 22.05 10.6634V12.565V12.565Z" fill="#F6F7F7"/>
<path fill-rule="evenodd" clip-rule="evenodd" d="M28.125 8.00002L19.2928 0.666524L20.3149 -0.564453L29.1471 6.76904L28.125 8.00002Z" fill="#F6F7F7"/>
<path fill-rule="evenodd" clip-rule="evenodd" d="M27.2928 12.6665L15.2928 2.66653L16.3171 1.43738L28.3171 11.4374L27.2928 12.6665Z" fill="#F6F7F7"/>
</g>
<rect x="6.125" y="6.125" width="15.75" height="15.75" rx="6" fill="#132A3A"/>
<path d="M16.073 21.875H11.927C7.90923 21.875 6.125 20.0907 6.125 16.073V11.927C6.125 7.90925 7.90923 6.125 11.927 6.125H16.073C20.0908 6.125 21.875 7.90925 21.875 11.927V16.073C21.8622 20.0907 20.0779 21.875 16.073 21.875ZM11.9141 8.06327C8.97464 8.06327 8.03759 9.00034 8.03759 11.9398V16.0859C8.03759 19.0254 8.97464 19.9624 11.9141 19.9624H16.0602C18.9997 19.9624 19.9367 19.0254 19.9367 16.0859V11.9398C19.9367 9.00034 18.9997 8.06327 16.0602 8.06327H11.9141Z" fill="#F6F7F7"/>
<defs>
<clipPath id="clip0_75_72">
<rect width="14.315" height="14.315" fill="white" transform="matrix(-1 0 0 -1 15.1899 27.4399)"/>
</clipPath>
<clipPath id="clip1_75_72">
<rect width="14.315" height="14.315" fill="white" transform="translate(13.125)"/>
</clipPath>
</defs>
</svg>
