<svg width="28" height="28" viewBox="0 0 28 28" fill="none" xmlns="http://www.w3.org/2000/svg">
<path d="M2.33337 11.375C1.85504 11.375 1.45837 10.9783 1.45837 10.5V7.58331C1.45837 4.21165 4.21171 1.45831 7.58338 1.45831H10.5C10.9784 1.45831 11.375 1.85498 11.375 2.33331C11.375 2.81165 10.9784 3.20831 10.5 3.20831H7.58338C5.16838 3.20831 3.20837 5.16831 3.20837 7.58331V10.5C3.20837 10.9783 2.81171 11.375 2.33337 11.375Z" fill="#F6F7F7"/>
<path d="M25.6667 11.375C25.1883 11.375 24.7917 10.9783 24.7917 10.5V7.58331C24.7917 5.16831 22.8317 3.20831 20.4167 3.20831H17.5C17.0217 3.20831 16.625 2.81165 16.625 2.33331C16.625 1.85498 17.0217 1.45831 17.5 1.45831H20.4167C23.7883 1.45831 26.5417 4.21165 26.5417 7.58331V10.5C26.5417 10.9783 26.145 11.375 25.6667 11.375Z" fill="#F6F7F7"/>
<path d="M20.4166 26.5417H18.6666C18.1883 26.5417 17.7916 26.145 17.7916 25.6667C17.7916 25.1884 18.1883 24.7917 18.6666 24.7917H20.4166C22.8316 24.7917 24.7916 22.8317 24.7916 20.4167V18.6667C24.7916 18.1884 25.1883 17.7917 25.6666 17.7917C26.145 17.7917 26.5416 18.1884 26.5416 18.6667V20.4167C26.5416 23.7884 23.7883 26.5417 20.4166 26.5417Z" fill="#F6F7F7"/>
<path d="M10.5 26.5417H7.58338C4.21171 26.5417 1.45837 23.7883 1.45837 20.4167V17.5C1.45837 17.0217 1.85504 16.625 2.33337 16.625C2.81171 16.625 3.20837 17.0217 3.20837 17.5V20.4167C3.20837 22.8317 5.16838 24.7917 7.58338 24.7917H10.5C10.9784 24.7917 11.375 25.1883 11.375 25.6667C11.375 26.145 10.9784 26.5417 10.5 26.5417Z" fill="#F6F7F7"/>
<path d="M21 17.2084C20.5217 17.2084 20.125 16.8117 20.125 16.3334V14.875H7.875V16.3334C7.875 16.8117 7.47833 17.2084 7 17.2084C6.52167 17.2084 6.125 16.8117 6.125 16.3334V11.6667C6.125 11.1884 6.52167 10.7917 7 10.7917C7.47833 10.7917 7.875 11.1884 7.875 11.6667V13.125H20.125V11.6667C20.125 11.1884 20.5217 10.7917 21 10.7917C21.4783 10.7917 21.875 11.1884 21.875 11.6667V16.3334C21.875 16.8117 21.4783 17.2084 21 17.2084Z" fill="#F6F7F7"/>
<path d="M16.3333 21.875H11.6666C11.1883 21.875 10.7916 21.4783 10.7916 21C10.7916 20.5217 11.1883 20.125 11.6666 20.125H13.125V7.875H11.6666C11.1883 7.875 10.7916 7.47833 10.7916 7C10.7916 6.52167 11.1883 6.125 11.6666 6.125H16.3333C16.8116 6.125 17.2083 6.52167 17.2083 7C17.2083 7.47833 16.8116 7.875 16.3333 7.875H14.875V20.125H16.3333C16.8116 20.125 17.2083 20.5217 17.2083 21C17.2083 21.4783 16.8116 21.875 16.3333 21.875Z" fill="#F6F7F7"/>
</svg>
