<svg width="28" height="28" viewBox="0 0 28 28" fill="none" xmlns="http://www.w3.org/2000/svg">
<path d="M9.33337 26.5417C4.99337 26.5417 1.45837 23.0067 1.45837 18.6667C1.45837 15.12 3.83837 11.9934 7.25671 11.0717C7.68837 10.955 8.13171 11.1767 8.29504 11.5967C9.00671 13.3817 10.5234 14.7467 12.3784 15.2484C13.405 15.5284 14.595 15.5284 15.5984 15.2484C16.03 15.1317 16.485 15.3534 16.6484 15.7734C17.01 16.695 17.1967 17.675 17.1967 18.6784C17.1967 20.9184 16.24 23.0534 14.5717 24.535C13.1484 25.8184 11.2817 26.5417 9.33337 26.5417ZM7.02337 12.985C4.74837 13.9184 3.20837 16.1584 3.20837 18.6667C3.20837 22.0384 5.96171 24.7917 9.33337 24.7917C10.85 24.7917 12.2967 24.2317 13.4167 23.2167C14.7234 22.0617 15.4584 20.405 15.4584 18.6667C15.4584 18.13 15.3884 17.6167 15.26 17.115C14.1634 17.29 12.9734 17.2317 11.9234 16.94C9.81171 16.3567 8.03837 14.91 7.02337 12.985Z" fill="#F6F7F7"/>
<path d="M14 17.2084C13.2767 17.2084 12.5767 17.115 11.9233 16.9284C9.555 16.275 7.58333 14.525 6.67333 12.2267C6.31167 11.3167 6.125 10.3367 6.125 9.33337C6.125 4.99337 9.66 1.45837 14 1.45837C18.34 1.45837 21.875 4.99337 21.875 9.33337C21.875 10.3367 21.6883 11.3167 21.3267 12.2384C20.4167 14.525 18.4567 16.2867 16.0767 16.94C15.4233 17.115 14.7233 17.2084 14 17.2084ZM14 3.20837C10.6283 3.20837 7.875 5.96171 7.875 9.33337C7.875 10.115 8.015 10.8734 8.30667 11.585C9.01833 13.37 10.535 14.735 12.39 15.2367C13.4167 15.5167 14.6067 15.5167 15.61 15.2367C17.465 14.735 18.9933 13.3584 19.6933 11.585C19.9733 10.8734 20.125 10.115 20.125 9.33337C20.125 5.96171 17.3717 3.20837 14 3.20837Z" fill="#F6F7F7"/>
<path d="M18.6667 26.5417C16.7183 26.5417 14.8517 25.8183 13.4167 24.5233C13.23 24.36 13.125 24.115 13.125 23.87C13.125 23.625 13.23 23.38 13.4167 23.2167C14.7117 22.0733 15.4583 20.4167 15.4583 18.6667C15.4583 17.885 15.3183 17.1267 15.0267 16.415C14.9333 16.1817 14.945 15.925 15.0617 15.7033C15.1783 15.4817 15.3767 15.3183 15.61 15.2483C17.465 14.7467 18.9817 13.3817 19.6933 11.5967C19.8567 11.1767 20.3117 10.9667 20.7317 11.0717C24.15 12.005 26.53 15.12 26.53 18.6667C26.5417 23.0067 23.0067 26.5417 18.6667 26.5417ZM15.3067 23.7883C16.2983 24.4417 17.4533 24.7917 18.6667 24.7917C22.0383 24.7917 24.7917 22.0383 24.7917 18.6667C24.7917 16.1583 23.2517 13.9183 20.9767 12.985C20.1133 14.63 18.6667 15.9367 16.94 16.6367C17.115 17.29 17.2083 17.9783 17.2083 18.6667C17.2083 20.5567 16.5317 22.3767 15.3067 23.7883Z" fill="#F6F7F7"/>
</svg>
