<svg width="24" height="24" viewBox="0 0 24 24" fill="none" xmlns="http://www.w3.org/2000/svg">
<path d="M7.9 21C7.408 21 7 20.7153 7 20.3721V3.62791C7 3.28465 7.408 3 7.9 3C8.392 3 8.8 3.28465 8.8 3.62791V20.3721C8.8 20.7153 8.404 21 7.9 21Z" fill="#F6F7F7"/>
<path d="M16.8819 16.8C16.6015 16.8 16.321 16.6985 16.0996 16.4809L12.321 12.7671C11.893 12.3464 11.893 11.65 12.321 11.2293L16.0996 7.51554C16.5277 7.09484 17.2362 7.09484 17.6642 7.51554C18.0923 7.93624 18.0923 8.63258 17.6642 9.05328L14.6827 11.9982L17.679 14.9431C18.107 15.3638 18.107 16.0602 17.679 16.4809C17.4576 16.6985 17.1771 16.8 16.8819 16.8Z" fill="#F6F7F7" stroke="#112634" stroke-width="0.5"/>
</svg>
