<svg width="28" height="28" viewBox="0 0 28 28" fill="none" xmlns="http://www.w3.org/2000/svg">
<path d="M22.1667 23.0416H11.55C6.49837 23.0416 4.95837 21.5016 4.95837 16.45V5.83331C4.95837 5.35498 5.35504 4.95831 5.83337 4.95831H16.45C21.5017 4.95831 23.0417 6.49831 23.0417 11.55V22.1666C23.0417 22.645 22.645 23.0416 22.1667 23.0416ZM6.70837 6.70831V16.45C6.70837 20.5216 7.47837 21.2916 11.55 21.2916H21.2917V11.55C21.2917 7.47831 20.5217 6.70831 16.45 6.70831H6.70837Z" fill="#F6F7F7"/>
<path d="M5.83337 6.70831C5.35504 6.70831 4.95837 6.31165 4.95837 5.83331V2.33331C4.95837 1.85498 5.35504 1.45831 5.83337 1.45831C6.31171 1.45831 6.70837 1.85498 6.70837 2.33331V5.83331C6.70837 6.31165 6.31171 6.70831 5.83337 6.70831Z" fill="#F6F7F7"/>
<path d="M5.83337 6.70831H2.33337C1.85504 6.70831 1.45837 6.31165 1.45837 5.83331C1.45837 5.35498 1.85504 4.95831 2.33337 4.95831H5.83337C6.31171 4.95831 6.70837 5.35498 6.70837 5.83331C6.70837 6.31165 6.31171 6.70831 5.83337 6.70831Z" fill="#F6F7F7"/>
<path d="M22.1666 26.5416C21.6883 26.5416 21.2916 26.145 21.2916 25.6666V22.1666C21.2916 21.6883 21.6883 21.2916 22.1666 21.2916C22.645 21.2916 23.0416 21.6883 23.0416 22.1666V25.6666C23.0416 26.145 22.645 26.5416 22.1666 26.5416Z" fill="#F6F7F7"/>
<path d="M25.6666 23.0416H22.1666C21.6883 23.0416 21.2916 22.645 21.2916 22.1666C21.2916 21.6883 21.6883 21.2916 22.1666 21.2916H25.6666C26.145 21.2916 26.5416 21.6883 26.5416 22.1666C26.5416 22.645 26.145 23.0416 25.6666 23.0416Z" fill="#F6F7F7"/>
</svg>
