<svg width="72" height="73" viewBox="0 0 72 73" fill="none" xmlns="http://www.w3.org/2000/svg">
<path d="M42 6.5H27C12 6.5 6 12.5 6 27.5V45.5C6 60.5 12 66.5 27 66.5" stroke="#F6F7F7" stroke-width="3" stroke-linecap="round" stroke-linejoin="round"/>
<path d="M66 30.5V39.5" stroke="#F6F7F7" stroke-width="3" stroke-linecap="round" stroke-linejoin="round"/>
<path d="M66 30.5H54C45 30.5 42 27.5 42 18.5V6.5L66 30.5Z" stroke="#F6F7F7" stroke-width="3" stroke-linecap="round" stroke-linejoin="round"/>
<path d="M41.2801 55.2801C34.2301 55.7901 34.2301 65.99 41.2801 66.5H57.9601C59.9701 66.5 61.9501 65.75 63.4201 64.4C68.3701 60.08 65.7301 51.44 59.2201 50.63C56.8801 36.56 36.5401 41.9 41.3401 55.31" stroke="#F6F7F7" stroke-width="3" stroke-miterlimit="10" stroke-linecap="round" stroke-linejoin="round"/>
</svg>
