<svg width="28" height="28" viewBox="0 0 28 28" fill="none" xmlns="http://www.w3.org/2000/svg">
<path d="M14 7.29175C14.2321 7.29175 14.4547 7.38394 14.6188 7.54803C14.7829 7.71212 14.875 7.93468 14.875 8.16675V14.2217L16.8817 12.2151C16.9618 12.1291 17.0584 12.0602 17.1657 12.0123C17.2731 11.9645 17.3889 11.9388 17.5064 11.9367C17.6239 11.9347 17.7406 11.9563 17.8496 12.0003C17.9585 12.0443 18.0575 12.1098 18.1406 12.1929C18.2237 12.276 18.2892 12.3749 18.3332 12.4839C18.3772 12.5928 18.3988 12.7095 18.3967 12.827C18.3947 12.9445 18.3689 13.0604 18.3211 13.1677C18.2733 13.275 18.2043 13.3716 18.1184 13.4517L14.6184 16.9517C14.4543 17.1156 14.2319 17.2076 14 17.2076C13.7682 17.2076 13.5458 17.1156 13.3817 16.9517L9.88171 13.4517C9.79574 13.3716 9.72679 13.275 9.67896 13.1677C9.63114 13.0604 9.60542 12.9445 9.60335 12.827C9.60128 12.7095 9.62289 12.5928 9.6669 12.4839C9.71091 12.3749 9.77641 12.276 9.8595 12.1929C9.94258 12.1098 10.0416 12.0443 10.1505 12.0003C10.2595 11.9563 10.3762 11.9347 10.4936 11.9367C10.6111 11.9388 10.727 11.9645 10.8343 12.0123C10.9417 12.0602 11.0383 12.1291 11.1184 12.2151L13.125 14.2217V8.16675C13.125 7.93468 13.2172 7.71212 13.3813 7.54803C13.5454 7.38394 13.768 7.29175 14 7.29175ZM8.45837 19.8334C8.45837 19.6014 8.55056 19.3788 8.71466 19.2147C8.87875 19.0506 9.10131 18.9584 9.33337 18.9584H18.6667C18.8988 18.9584 19.1213 19.0506 19.2854 19.2147C19.4495 19.3788 19.5417 19.6014 19.5417 19.8334C19.5417 20.0655 19.4495 20.288 19.2854 20.4521C19.1213 20.6162 18.8988 20.7084 18.6667 20.7084H9.33337C9.10131 20.7084 8.87875 20.6162 8.71466 20.4521C8.55056 20.288 8.45837 20.0655 8.45837 19.8334Z" fill="#132A3A"/>
<path fill-rule="evenodd" clip-rule="evenodd" d="M13.9335 1.45837C11.2397 1.45837 9.12921 1.45837 7.48187 1.68004C5.79721 1.90637 4.46721 2.38004 3.42304 3.42304C2.37887 4.46721 1.90637 5.79721 1.68004 7.48304C1.45837 9.12921 1.45837 11.2397 1.45837 13.9335V14.0665C1.45837 16.7604 1.45837 18.8709 1.68004 20.5182C1.90637 22.2029 2.38004 23.5329 3.42304 24.577C4.46721 25.6212 5.79721 26.0937 7.48304 26.32C9.12921 26.5417 11.2397 26.5417 13.9335 26.5417H14.0665C16.7604 26.5417 18.8709 26.5417 20.5182 26.32C22.2029 26.0937 23.5329 25.62 24.577 24.577C25.6212 23.5329 26.0937 22.2029 26.32 20.517C26.5417 18.8709 26.5417 16.7604 26.5417 14.0665V13.9335C26.5417 11.2397 26.5417 9.12921 26.32 7.48187C26.0937 5.79721 25.62 4.46721 24.577 3.42304C23.5329 2.37887 22.2029 1.90637 20.517 1.68004C18.8709 1.45837 16.7604 1.45837 14.0665 1.45837H13.9335ZM4.66087 4.66087C5.32587 3.99587 6.22421 3.61437 7.71637 3.41371C9.23304 3.21071 11.2257 3.20837 14 3.20837C16.7744 3.20837 18.767 3.21071 20.2837 3.41371C21.7759 3.61437 22.6754 3.99704 23.3404 4.66087C24.0042 5.32587 24.3857 6.22421 24.5864 7.71637C24.7894 9.23304 24.7917 11.2257 24.7917 14C24.7917 16.7744 24.7894 18.767 24.5864 20.2837C24.3857 21.7759 24.003 22.6754 23.3392 23.3404C22.6742 24.0042 21.7759 24.3857 20.2837 24.5864C18.767 24.7894 16.7744 24.7917 14 24.7917C11.2257 24.7917 9.23304 24.7894 7.71637 24.5864C6.22421 24.3857 5.32471 24.003 4.65971 23.3392C3.99587 22.6742 3.61437 21.7759 3.41371 20.2837C3.21071 18.767 3.20837 16.7744 3.20837 14C3.20837 11.2257 3.21071 9.23304 3.41371 7.71637C3.61437 6.22421 3.99704 5.32587 4.66087 4.66087Z" fill="#132A3A"/>
</svg>
