<svg width="28" height="28" viewBox="0 0 28 28" fill="none" xmlns="http://www.w3.org/2000/svg">
<path d="M5.7517 23.1234C5.51837 23.1234 5.29674 23.03 5.1334 22.8667C2.76507 20.4984 1.45837 17.3484 1.45837 14C1.45837 7.08171 7.08171 1.45837 14 1.45837C17.3484 1.45837 20.4983 2.76504 22.8667 5.13338C23.03 5.29671 23.1234 5.51837 23.1234 5.75171C23.1234 5.98504 23.03 6.20671 22.8667 6.37004L6.37007 22.8667C6.20673 23.03 5.98503 23.1234 5.7517 23.1234ZM14 3.20837C8.05004 3.20837 3.20837 8.05004 3.20837 14C3.20837 16.59 4.11839 19.04 5.77505 20.9884L20.9884 5.77504C19.04 4.11837 16.59 3.20837 14 3.20837Z" fill="#F6F7F7" stroke="#F6F7F7" stroke-width="0.3"/>
<path d="M14.0002 26.5417C10.6518 26.5417 7.50187 25.2351 5.13353 22.8667C4.9702 22.7034 4.87683 22.4817 4.87683 22.2484C4.87683 22.0151 4.9702 21.7934 5.13353 21.6301L21.6301 5.13339C21.9685 4.79506 22.5285 4.79506 22.8668 5.13339C25.2351 7.50172 26.5418 10.6517 26.5418 14.0001C26.5418 20.9184 20.9185 26.5417 14.0002 26.5417ZM7.01185 22.2251C8.96018 23.8817 11.4102 24.7917 14.0002 24.7917C19.9502 24.7917 24.7918 19.9501 24.7918 14.0001C24.7918 11.4101 23.8818 8.96006 22.2252 7.01172L7.01185 22.2251Z" fill="#F6F7F7" stroke="#F6F7F7" stroke-width="0.3"/>
<path d="M15.645 26.425C15.4233 26.425 15.2017 26.3433 15.0267 26.1683L8.42331 19.565C8.08497 19.2267 8.08497 18.6667 8.42331 18.3283C8.76164 17.99 9.32171 17.99 9.66004 18.3283L16.2633 24.9317C16.6017 25.27 16.6017 25.83 16.2633 26.1683C16.1 26.3433 15.8783 26.425 15.645 26.425Z" fill="#F6F7F7" stroke="#F6F7F7" stroke-width="0.3"/>
<path d="M20.8483 23.3683C20.6266 23.3683 20.405 23.2867 20.23 23.1117L12.5533 15.435C12.215 15.0967 12.215 14.5367 12.5533 14.1983C12.8916 13.86 13.4516 13.86 13.79 14.1983L21.4667 21.875C21.805 22.2133 21.805 22.7733 21.4667 23.1117C21.2917 23.2867 21.07 23.3683 20.8483 23.3683Z" fill="#F6F7F7" stroke="#F6F7F7" stroke-width="0.3"/>
<path d="M24.64 18.9233C24.4183 18.9233 24.1967 18.8416 24.0217 18.6666L16.6833 11.3283C16.345 10.99 16.345 10.43 16.6833 10.0916C17.0216 9.75331 17.5816 9.75331 17.92 10.0916L25.2584 17.43C25.5967 17.7683 25.5967 18.3283 25.2584 18.6666C25.095 18.83 24.8733 18.9233 24.64 18.9233Z" fill="#F6F7F7" stroke="#F6F7F7" stroke-width="0.3"/>
</svg>
