<svg width="28" height="28" viewBox="0 0 28 28" fill="none" xmlns="http://www.w3.org/2000/svg">
<path d="M14 26.5066C7.10495 26.5066 1.49329 20.895 1.49329 14C1.49329 7.10495 7.10495 1.49329 14 1.49329C17.0916 1.49329 20.055 2.63662 22.3416 4.70162C24.99 7.04662 26.5066 10.4416 26.5066 14C26.5066 17.5583 24.99 20.9533 22.33 23.31C20.055 25.375 17.0916 26.5066 14 26.5066ZM14 3.24329C8.06162 3.24329 3.24329 8.07329 3.24329 14C3.24329 19.9266 8.07329 24.7566 14 24.7566C16.66 24.7566 19.2033 23.7766 21.175 21.9916C23.4616 19.9616 24.7683 17.0566 24.7683 13.9883C24.7683 10.92 23.4616 8.01495 21.1866 5.99662C19.2033 4.22329 16.66 3.24329 14 3.24329Z" fill="#F6F7F7" stroke="#F6F7F7" stroke-width="0.3"/>
<path d="M12.18 22.0617C11.7483 22.0617 11.2933 21.9684 10.85 21.7934C7.65333 20.51 5.57666 17.4417 5.57666 14C5.57666 10.5584 7.64166 7.49003 10.85 6.2067C11.865 5.79836 12.8917 5.8567 13.6617 6.37003C14.4083 6.8717 14.8283 7.75836 14.8517 8.8667V19.1217V19.1334C14.84 20.2417 14.42 21.14 13.6617 21.63C13.23 21.9217 12.7167 22.0617 12.18 22.0617ZM12.18 7.68836C11.97 7.68836 11.7367 7.73503 11.5033 7.82836C8.95999 8.84336 7.32666 11.27 7.32666 14C7.32666 16.73 8.95999 19.1567 11.5033 20.1717C11.97 20.3584 12.4133 20.3584 12.6933 20.1834C13.02 19.9617 13.09 19.4834 13.1017 19.1217V8.87836C13.1017 8.52836 13.02 8.03836 12.6933 7.8167C12.5533 7.73503 12.3783 7.68836 12.18 7.68836Z" fill="#F6F7F7" stroke="#F6F7F7" stroke-width="0.3"/>
</svg>
