<svg width="25" height="24" viewBox="0 0 25 24" fill="none" xmlns="http://www.w3.org/2000/svg">
<path d="M23.3327 19.5629C23.2389 19.6971 23.1109 19.8074 22.9601 19.8837C22.8094 19.96 22.6406 20 22.4692 20L14.9066 20C14.6331 20 14.3708 19.8984 14.1774 19.7176C13.984 19.5367 13.8754 19.2915 13.8754 19.0357L13.8754 2.96491C13.8757 2.74389 13.9573 2.5297 14.1064 2.35819C14.2555 2.18669 14.4631 2.06828 14.6944 2.02279C14.9257 1.9773 15.1667 2.0075 15.3771 2.10832C15.5874 2.20915 15.7543 2.37448 15.8499 2.57664L23.4124 18.6475C23.4816 18.7942 23.5105 18.9548 23.4966 19.1146C23.4827 19.2745 23.4263 19.4285 23.3327 19.5629ZM15.9379 7.55089L15.9379 18.0715L20.8879 18.0715L15.9379 7.55089ZM2.18783 20C2.07237 20.0001 1.95876 19.9729 1.85747 19.9211C1.75619 19.8693 1.67049 19.7944 1.60829 19.7035C1.54609 19.6125 1.50939 19.5084 1.50157 19.4007C1.49376 19.293 1.51508 19.1851 1.56358 19.0872L9.81361 2.37351C9.8793 2.2404 9.99167 2.13228 10.1321 2.06708C10.2725 2.00188 10.4326 1.98352 10.5857 2.01503C10.7388 2.04655 10.8758 2.12605 10.9739 2.24035C11.0721 2.35466 11.1255 2.4969 11.1254 2.6435L11.1254 19.3572C11.1254 19.5277 11.0529 19.6912 10.924 19.8117C10.7951 19.9323 10.6202 20 10.4379 20L2.18783 20Z" fill="#F6F7F7"/>
</svg>
