<svg width="25" height="24" viewBox="0 0 25 24" fill="none" xmlns="http://www.w3.org/2000/svg">
<path d="M20.0629 1.16733C20.1971 1.26105 20.3074 1.38909 20.3837 1.53986C20.46 1.69064 20.5 1.85938 20.5 2.03083V9.59336C20.5 9.86687 20.3984 10.1292 20.2176 10.3226C20.0367 10.516 19.7915 10.6246 19.5357 10.6246H3.46491C3.24389 10.6243 3.0297 10.5427 2.85819 10.3936C2.68669 10.2445 2.56828 10.0369 2.52279 9.8056C2.4773 9.57428 2.5075 9.33327 2.60832 9.12292C2.70915 8.91257 2.87448 8.74565 3.07664 8.65011L19.1475 1.08757C19.2942 1.01841 19.4548 0.98948 19.6146 1.0034C19.7745 1.01733 19.9285 1.07367 20.0629 1.16733ZM8.05089 8.56211H18.5715V3.61209L8.05089 8.56211ZM20.5 22.3122C20.5001 22.4276 20.4729 22.5412 20.4211 22.6425C20.3693 22.7438 20.2944 22.8295 20.2035 22.8917C20.1125 22.9539 20.0084 22.9906 19.9007 22.9984C19.793 23.0062 19.6852 22.9849 19.5872 22.9364L2.87351 14.6864C2.7404 14.6207 2.63228 14.5083 2.56708 14.3679C2.50188 14.2275 2.48352 14.0674 2.51503 13.9143C2.54655 13.7612 2.62605 13.6242 2.74035 13.5261C2.85466 13.4279 2.9969 13.3745 3.1435 13.3746H19.8572C20.0277 13.3746 20.1912 13.4471 20.3117 13.576C20.4323 13.7049 20.5 13.8798 20.5 14.0621V22.3122Z" fill="#F6F7F7"/>
</svg>
