<svg width="18" height="18" viewBox="0 0 18 18" fill="none" xmlns="http://www.w3.org/2000/svg">
<path d="M5.81248 13.8751C3.12749 13.8751 0.9375 11.6851 0.9375 9.0001C0.9375 6.31511 3.12749 4.12512 5.81248 4.12512C6.11998 4.12512 6.37498 4.38012 6.37498 4.68762C6.37498 4.99512 6.11998 5.25012 5.81248 5.25012C3.74249 5.25012 2.0625 6.93011 2.0625 9.0001C2.0625 11.0701 3.74249 12.7501 5.81248 12.7501C7.88247 12.7501 9.56247 11.0701 9.56247 9.0001C9.56247 8.6926 9.81747 8.43761 10.125 8.43761C10.4325 8.43761 10.6875 8.6926 10.6875 9.0001C10.6875 11.6851 8.49747 13.8751 5.81248 13.8751Z" fill="#F6F7F7"/>
<path d="M12.0001 14.0625C11.6926 14.0625 11.4376 13.8075 11.4376 13.5C11.4376 13.1925 11.6926 12.9375 12.0001 12.9375C14.1676 12.9375 15.9376 11.1675 15.9376 8.99998C15.9376 6.83249 14.1676 5.0625 12.0001 5.0625C9.83261 5.0625 8.06262 6.83249 8.06262 8.99998C8.06262 9.30748 7.80762 9.56248 7.50012 9.56248C7.19262 9.56248 6.93762 9.30748 6.93762 8.99998C6.93762 6.20999 9.21011 3.9375 12.0001 3.9375C14.7901 3.9375 17.0626 6.20999 17.0626 8.99998C17.0626 11.79 14.7901 14.0625 12.0001 14.0625Z" fill="#F6F7F7"/>
</svg>
