<svg width="29" height="28" viewBox="0 0 29 28" fill="none" xmlns="http://www.w3.org/2000/svg">
<circle cx="9" cy="14" r="8" fill="#F6F7F7"/>
<path d="M20.1957 23C18.0174 23 15.9304 22.1733 14.3261 20.6933C14.1174 20.5067 14 20.2267 14 19.9467C14 19.6667 14.1174 19.3867 14.3261 19.2C15.7739 17.8933 16.6087 16 16.6087 14C16.6087 12 15.7739 10.1067 14.3261 8.8C14.1174 8.61333 14 8.34667 14 8.05333C14 7.77333 14.1174 7.49333 14.3261 7.30667C15.9435 5.81333 18.0174 5 20.1957 5C25.0478 5 29 9.04 29 14C29 18.96 25.0609 23 20.1957 23ZM16.4522 19.8533C17.5609 20.6 18.8522 21 20.2087 21C23.9783 21 27.0565 17.8533 27.0565 14C27.0565 10.1467 23.9783 7 20.2087 7C18.8652 7 17.5609 7.4 16.4522 8.14667C17.8087 9.76 18.5783 11.8267 18.5783 14C18.5783 16.1733 17.8087 18.24 16.4522 19.8533Z" fill="#F6F7F7"/>
<path d="M9 23C4.04 23 0 18.96 0 14C0 9.04 4.04 5 9 5C11.2267 5 13.36 5.82667 15 7.30667C16.8933 8.98667 18 11.4267 18 14C18 16.5733 16.9067 19 15 20.6933C13.36 22.1733 11.2267 23 9 23ZM9 7C5.14667 7 2 10.1467 2 14C2 17.8533 5.14667 21 9 21C10.7333 21 12.3867 20.36 13.6667 19.2C15.16 17.88 16 15.9867 16 14C16 12.0133 15.1467 10.1067 13.6667 8.8C12.3867 7.64 10.7333 7 9 7Z" fill="#F6F7F7"/>
</svg>
