<svg width="25" height="24" viewBox="0 0 25 24" fill="none" xmlns="http://www.w3.org/2000/svg">
<path d="M12.4989 3C14.5397 2.99953 16.5263 3.6564 18.1647 4.87332C19.803 6.09023 21.0059 7.8025 21.5953 9.75654C22.1846 11.7106 22.1291 13.8025 21.4368 15.7225C20.7446 17.6425 19.4524 19.2885 17.7518 20.4167H19.6231C19.8237 20.4167 20.0167 20.4929 20.1633 20.6299C20.3098 20.7668 20.3989 20.9543 20.4126 21.1544C20.4263 21.3545 20.3635 21.5523 20.2369 21.7079C20.1103 21.8635 19.9294 21.9653 19.7307 21.9926L19.6231 22H15.4014C15.2101 22 15.0253 21.9307 14.8811 21.805C14.7369 21.6792 14.6432 21.5055 14.6172 21.316L14.6098 21.2083V16.9861C14.6098 16.7855 14.686 16.5925 14.8229 16.4459C14.9599 16.2993 15.1473 16.2102 15.3474 16.1965C15.5475 16.1829 15.7453 16.2457 15.9009 16.3722C16.0565 16.4988 16.1582 16.6797 16.1855 16.8784L16.1929 16.9861L16.194 19.5036C17.7581 18.6781 19.0009 17.3526 19.724 15.7384C20.4471 14.1242 20.609 12.3144 20.1838 10.5975C19.7586 8.88059 18.7708 7.35552 17.378 6.26549C15.9852 5.17547 14.2675 4.58327 12.4989 4.58333C10.3995 4.58333 8.38612 5.41741 6.90162 6.90207C5.41713 8.38673 4.58315 10.4004 4.58315 12.5C4.58315 12.71 4.49975 12.9113 4.35131 13.0598C4.20286 13.2083 4.00151 13.2917 3.79157 13.2917C3.58164 13.2917 3.38029 13.2083 3.23185 13.0598C3.0834 12.9113 3 12.71 3 12.5C3 9.98044 4.00078 7.56408 5.78217 5.78249C7.56356 4.00089 9.97964 3 12.4989 3ZM12.4989 9.59722C13.2687 9.59722 14.0069 9.90305 14.5512 10.4474C15.0956 10.9918 15.4014 11.7301 15.4014 12.5C15.4014 13.2699 15.0956 14.0082 14.5512 14.5526C14.0069 15.097 13.2687 15.4028 12.4989 15.4028C11.7291 15.4028 10.9909 15.097 10.4466 14.5526C9.90226 14.0082 9.59647 13.2699 9.59647 12.5C9.59647 11.7301 9.90226 10.9918 10.4466 10.4474C10.9909 9.90305 11.7291 9.59722 12.4989 9.59722ZM12.4989 11.1806C12.149 11.1806 11.8134 11.3196 11.566 11.567C11.3186 11.8145 11.1796 12.1501 11.1796 12.5C11.1796 12.8499 11.3186 13.1855 11.566 13.433C11.8134 13.6804 12.149 13.8194 12.4989 13.8194C12.8488 13.8194 13.1844 13.6804 13.4318 13.433C13.6792 13.1855 13.8182 12.8499 13.8182 12.5C13.8182 12.1501 13.6792 11.8145 13.4318 11.567C13.1844 11.3196 12.8488 11.1806 12.4989 11.1806Z" fill="#F6F7F7"/>
</svg>
