<svg width="25" height="24" viewBox="0 0 25 24" fill="none" xmlns="http://www.w3.org/2000/svg">
<path d="M12.5011 3C10.4603 2.99953 8.47366 3.6564 6.83532 4.87332C5.19697 6.09023 3.99405 7.8025 3.40471 9.75654C2.81537 11.7106 2.87094 13.8025 3.56318 15.7225C4.25543 17.6425 5.54755 19.2885 7.24819 20.4167H5.37691C5.17635 20.4167 4.98329 20.4929 4.83674 20.6299C4.6902 20.7668 4.60108 20.9543 4.58741 21.1544C4.57374 21.3545 4.63653 21.5523 4.7631 21.7079C4.88966 21.8635 5.07057 21.9653 5.26925 21.9926L5.37691 22H9.59864C9.78993 22 9.97474 21.9307 10.1189 21.805C10.2631 21.6792 10.3568 21.5055 10.3828 21.316L10.3902 21.2083V16.9861C10.3902 16.7855 10.314 16.5925 10.1771 16.4459C10.0401 16.2993 9.85269 16.2102 9.6526 16.1965C9.45251 16.1829 9.25469 16.2457 9.09911 16.3722C8.94353 16.4988 8.84179 16.6797 8.81446 16.8784L8.80707 16.9861L8.80601 19.5036C7.24185 18.6781 5.99912 17.3526 5.27599 15.7384C4.55286 14.1242 4.39099 12.3144 4.81618 10.5975C5.24138 8.88059 6.22917 7.35552 7.622 6.26549C9.01484 5.17547 10.7325 4.58327 12.5011 4.58333C14.6005 4.58333 16.6139 5.41741 18.0984 6.90207C19.5829 8.38673 20.4168 10.4004 20.4168 12.5C20.4168 12.71 20.5002 12.9113 20.6487 13.0598C20.7971 13.2083 20.9985 13.2917 21.2084 13.2917C21.4184 13.2917 21.6197 13.2083 21.7682 13.0598C21.9166 12.9113 22 12.71 22 12.5C22 9.98044 20.9992 7.56408 19.2178 5.78249C17.4364 4.00089 15.0204 3 12.5011 3ZM12.5011 9.59722C11.7313 9.59722 10.9931 9.90305 10.4488 10.4474C9.90444 10.9918 9.59864 11.7301 9.59864 12.5C9.59864 13.2699 9.90444 14.0082 10.4488 14.5526C10.9931 15.097 11.7313 15.4028 12.5011 15.4028C13.2709 15.4028 14.0091 15.097 14.5534 14.5526C15.0977 14.0082 15.4035 13.2699 15.4035 12.5C15.4035 11.7301 15.0977 10.9918 14.5534 10.4474C14.0091 9.90305 13.2709 9.59722 12.5011 9.59722ZM12.5011 11.1806C12.851 11.1806 13.1866 11.3196 13.434 11.567C13.6814 11.8145 13.8204 12.1501 13.8204 12.5C13.8204 12.8499 13.6814 13.1855 13.434 13.433C13.1866 13.6804 12.851 13.8194 12.5011 13.8194C12.1512 13.8194 11.8156 13.6804 11.5682 13.433C11.3208 13.1855 11.1818 12.8499 11.1818 12.5C11.1818 12.1501 11.3208 11.8145 11.5682 11.567C11.8156 11.3196 12.1512 11.1806 12.5011 11.1806Z" fill="#F6F7F7"/>
</svg>
