<svg width="20" height="20" viewBox="0 0 20 20" fill="none" xmlns="http://www.w3.org/2000/svg">
<path d="M11.8333 10.375H7.66663C7.32496 10.375 7.04163 10.0917 7.04163 9.75C7.04163 9.40833 7.32496 9.125 7.66663 9.125H11.8333C12.175 9.125 12.4583 9.40833 12.4583 9.75C12.4583 10.0917 12.175 10.375 11.8333 10.375Z" fill="#F6F7F7"/>
<path d="M9.75 12.4583C9.40833 12.4583 9.125 12.175 9.125 11.8333V7.66663C9.125 7.32496 9.40833 7.04163 9.75 7.04163C10.0917 7.04163 10.375 7.32496 10.375 7.66663V11.8333C10.375 12.175 10.0917 12.4583 9.75 12.4583Z" fill="#F6F7F7"/>
<path d="M9.58329 18.125C4.87496 18.125 1.04163 14.2916 1.04163 9.58329C1.04163 4.87496 4.87496 1.04163 9.58329 1.04163C14.2916 1.04163 18.125 4.87496 18.125 9.58329C18.125 14.2916 14.2916 18.125 9.58329 18.125ZM9.58329 2.29163C5.55829 2.29163 2.29163 5.56663 2.29163 9.58329C2.29163 13.6 5.55829 16.875 9.58329 16.875C13.6083 16.875 16.875 13.6 16.875 9.58329C16.875 5.56663 13.6083 2.29163 9.58329 2.29163Z" fill="#F6F7F7"/>
<path d="M18.3333 18.9583C18.175 18.9583 18.0166 18.9 17.8916 18.775L16.225 17.1083C15.9833 16.8666 15.9833 16.4666 16.225 16.225C16.4666 15.9833 16.8666 15.9833 17.1083 16.225L18.775 17.8916C19.0166 18.1333 19.0166 18.5333 18.775 18.775C18.65 18.9 18.4916 18.9583 18.3333 18.9583Z" fill="#F6F7F7"/>
</svg>
