<svg width="205" height="26" viewBox="0 0 205 26" fill="none" xmlns="http://www.w3.org/2000/svg">
<path d="M10.4 21.6667H15.6C19.9333 21.6667 21.6667 19.9334 21.6667 15.6V10.4C21.6667 6.06671 19.9333 4.33337 15.6 4.33337H10.4C6.06668 4.33337 4.33334 6.06671 4.33334 10.4V15.6C4.33334 19.9334 6.06668 21.6667 10.4 21.6667Z" stroke="#C9CDD2" stroke-width="1.2" stroke-linecap="round" stroke-linejoin="round"/>
<path d="M11.375 18.4167H14.625C17.3333 18.4167 18.4167 17.3334 18.4167 14.625V11.375C18.4167 8.66671 17.3333 7.58337 14.625 7.58337H11.375C8.66668 7.58337 7.58334 8.66671 7.58334 11.375V14.625C7.58334 17.3334 8.66668 18.4167 11.375 18.4167Z" stroke="#C9CDD2" stroke-width="1.2" stroke-linecap="round" stroke-linejoin="round"/>
<path d="M8.67749 4.33329V2.16663" stroke="#C9CDD2" stroke-width="1.2" stroke-linecap="round" stroke-linejoin="round"/>
<path d="M13 4.33329V2.16663" stroke="#C9CDD2" stroke-width="1.2" stroke-linecap="round" stroke-linejoin="round"/>
<path d="M17.3333 4.33329V2.16663" stroke="#C9CDD2" stroke-width="1.2" stroke-linecap="round" stroke-linejoin="round"/>
<path d="M21.6667 8.66663H23.8333" stroke="#C9CDD2" stroke-width="1.2" stroke-linecap="round" stroke-linejoin="round"/>
<path d="M21.6667 13H23.8333" stroke="#C9CDD2" stroke-width="1.2" stroke-linecap="round" stroke-linejoin="round"/>
<path d="M21.6667 17.3334H23.8333" stroke="#C9CDD2" stroke-width="1.2" stroke-linecap="round" stroke-linejoin="round"/>
<path d="M17.3333 21.6666V23.8333" stroke="#C9CDD2" stroke-width="1.2" stroke-linecap="round" stroke-linejoin="round"/>
<path d="M13.0108 21.6666V23.8333" stroke="#C9CDD2" stroke-width="1.2" stroke-linecap="round" stroke-linejoin="round"/>
<path d="M8.67749 21.6666V23.8333" stroke="#C9CDD2" stroke-width="1.2" stroke-linecap="round" stroke-linejoin="round"/>
<path d="M2.16666 8.66663H4.33332" stroke="#C9CDD2" stroke-width="1.2" stroke-linecap="round" stroke-linejoin="round"/>
<path d="M2.16666 13H4.33332" stroke="#C9CDD2" stroke-width="1.2" stroke-linecap="round" stroke-linejoin="round"/>
<path d="M2.16666 17.3334H4.33332" stroke="#C9CDD2" stroke-width="1.2" stroke-linecap="round" stroke-linejoin="round"/>
<path d="M13 10.5083L11.9817 12.285C11.7542 12.675 11.9383 13 12.3933 13H13.6067C14.0617 13 14.2458 13.325 14.0183 13.715L13 15.4916" stroke="#C9CDD2" stroke-width="1.2" stroke-linecap="round" stroke-linejoin="round"/>
<path d="M40.176 18L39.21 15.662H34.492L33.54 18H32.238L36.242 8.2H37.39L41.506 18H40.176ZM36.83 9.894L34.954 14.528H38.748L36.83 9.894ZM42.9097 9.138V7.78H44.1977V9.138H42.9097ZM42.9517 18V10.44H44.1417V18H42.9517ZM53.8518 8.2C55.6998 8.2 57.0998 9.544 57.0998 11.35C57.0998 13.142 55.7138 14.486 53.8518 14.486H51.5698V18H50.3378V8.2H53.8518ZM53.7958 13.296C54.9858 13.296 55.8538 12.47 55.8538 11.35C55.8538 10.23 54.9858 9.39 53.7958 9.39H51.5698V13.296H53.7958ZM62.0767 18.168C59.7807 18.168 58.0587 16.488 58.0587 14.22C58.0587 11.952 59.7807 10.286 62.0767 10.286C64.3587 10.286 66.0807 11.966 66.0807 14.22C66.0807 16.488 64.3587 18.168 62.0767 18.168ZM62.0767 17.02C63.6867 17.02 64.8627 15.844 64.8627 14.234C64.8627 12.61 63.6867 11.434 62.0767 11.434C60.4527 11.434 59.2767 12.61 59.2767 14.22C59.2767 15.844 60.4527 17.02 62.0767 17.02ZM76.9918 10.44H78.1958L75.6198 18H74.6538L72.5258 12.862L70.3838 18H69.4178L66.8698 10.44H68.1018L69.9918 16.012L72.3018 10.566H72.7358L75.0738 16.068L76.9918 10.44ZM86.6213 14.262C86.6213 14.402 86.6073 14.542 86.5933 14.682H80.1533C80.3353 16.082 81.3853 17.006 82.8133 17.006C83.8633 17.006 84.7033 16.516 85.1653 15.704H86.4253C85.7813 17.258 84.4513 18.168 82.8133 18.168C80.6153 18.168 78.9633 16.474 78.9633 14.22C78.9633 11.98 80.6153 10.286 82.8133 10.286C85.1093 10.286 86.6213 12.05 86.6213 14.262ZM82.8133 11.406C81.4413 11.406 80.4193 12.274 80.1813 13.59H85.4313C85.1793 12.246 84.1573 11.406 82.8133 11.406ZM91.855 10.412H92.527V11.532H91.757C90.371 11.532 89.587 12.428 89.587 13.898V18H88.397V10.44H89.251L89.433 11.602C89.979 10.818 90.763 10.412 91.855 10.412ZM100.635 14.262C100.635 14.402 100.621 14.542 100.607 14.682H94.167C94.349 16.082 95.399 17.006 96.827 17.006C97.877 17.006 98.717 16.516 99.179 15.704H100.439C99.795 17.258 98.465 18.168 96.827 18.168C94.629 18.168 92.977 16.474 92.977 14.22C92.977 11.98 94.629 10.286 96.827 10.286C99.123 10.286 100.635 12.05 100.635 14.262ZM96.827 11.406C95.455 11.406 94.433 12.274 94.195 13.59H99.445C99.193 12.246 98.171 11.406 96.827 11.406ZM108.515 7.752H109.705V18.014H108.781L108.627 16.936C107.927 17.706 106.905 18.168 105.715 18.168C103.447 18.168 101.809 16.474 101.809 14.234C101.809 11.966 103.447 10.286 105.715 10.286C106.835 10.286 107.815 10.706 108.515 11.406V7.752ZM105.799 17.02C107.409 17.02 108.585 15.816 108.585 14.234C108.585 12.638 107.409 11.434 105.799 11.434C104.203 11.434 103.027 12.624 103.027 14.234C103.027 15.83 104.203 17.02 105.799 17.02ZM115.908 18V8.2H117.14V18H115.908ZM128.036 10.286C129.632 10.286 130.696 11.476 130.696 13.17V18H129.506V13.548C129.506 12.176 128.876 11.364 127.798 11.364C126.692 11.364 125.782 12.428 125.782 13.814V18H124.606V13.548C124.606 12.176 123.976 11.364 122.884 11.364C121.778 11.364 120.868 12.428 120.868 13.814V18H119.678V10.44H120.532L120.728 11.49C121.316 10.734 122.198 10.286 123.15 10.286C124.228 10.286 125.054 10.832 125.474 11.714C126.034 10.832 127 10.286 128.036 10.286ZM139.435 10.44H140.373V18H139.393L139.267 16.866C138.567 17.678 137.531 18.168 136.299 18.168C134.059 18.168 132.379 16.474 132.379 14.234C132.379 11.966 134.059 10.286 136.299 10.286C137.531 10.286 138.581 10.776 139.281 11.602L139.435 10.44ZM136.383 17.02C137.993 17.02 139.155 15.83 139.155 14.22C139.155 12.624 137.993 11.434 136.383 11.434C134.787 11.434 133.597 12.638 133.597 14.22C133.597 15.816 134.787 17.02 136.383 17.02ZM149.014 10.44L149.812 10.454V16.95C149.812 19.386 148.412 20.87 146.102 20.87C144.254 20.87 142.938 19.904 142.532 18.308H143.722C144.058 19.246 145.01 19.778 146.102 19.778C147.614 19.778 148.65 18.784 148.65 17.104V16.642C147.978 17.342 147.012 17.762 145.892 17.762C143.792 17.762 142.182 16.138 142.182 14.024C142.182 11.924 143.792 10.286 145.892 10.286C147.11 10.286 148.146 10.79 148.832 11.616L149.014 10.44ZM146.018 16.628C147.544 16.628 148.636 15.522 148.636 14.024C148.636 12.526 147.53 11.42 146.018 11.42C144.506 11.42 143.386 12.54 143.386 14.024C143.386 15.508 144.506 16.628 146.018 16.628ZM159.274 14.262C159.274 14.402 159.26 14.542 159.246 14.682H152.806C152.988 16.082 154.038 17.006 155.466 17.006C156.516 17.006 157.356 16.516 157.818 15.704H159.078C158.434 17.258 157.104 18.168 155.466 18.168C153.268 18.168 151.616 16.474 151.616 14.22C151.616 11.98 153.268 10.286 155.466 10.286C157.762 10.286 159.274 12.05 159.274 14.262ZM155.466 11.406C154.094 11.406 153.072 12.274 152.834 13.59H158.084C157.832 12.246 156.81 11.406 155.466 11.406ZM166.085 16.824H170.551V18H164.853V8.2H170.397V9.376H166.085V12.4H170.033V13.534H166.085V16.824ZM178.405 7.752H179.595V18.014H178.671L178.517 16.936C177.817 17.706 176.795 18.168 175.605 18.168C173.337 18.168 171.699 16.474 171.699 14.234C171.699 11.966 173.337 10.286 175.605 10.286C176.725 10.286 177.705 10.706 178.405 11.406V7.752ZM175.689 17.02C177.299 17.02 178.475 15.816 178.475 14.234C178.475 12.638 177.299 11.434 175.689 11.434C174.093 11.434 172.917 12.624 172.917 14.234C172.917 15.83 174.093 17.02 175.689 17.02ZM181.953 9.138V7.78H183.241V9.138H181.953ZM181.995 18V10.44H183.185V18H181.995ZM188.713 16.908H189.539V18H188.559C186.935 18 185.927 17.006 185.927 15.368V11.518H184.597V11.308L186.935 8.844H187.117V10.44H189.497V11.518H187.117V15.326C187.117 16.348 187.677 16.908 188.713 16.908ZM194.448 18.168C192.152 18.168 190.43 16.488 190.43 14.22C190.43 11.952 192.152 10.286 194.448 10.286C196.73 10.286 198.452 11.966 198.452 14.22C198.452 16.488 196.73 18.168 194.448 18.168ZM194.448 17.02C196.058 17.02 197.234 15.844 197.234 14.234C197.234 12.61 196.058 11.434 194.448 11.434C192.824 11.434 191.648 12.61 191.648 14.22C191.648 15.844 192.824 17.02 194.448 17.02ZM203.718 10.412H204.39V11.532H203.62C202.234 11.532 201.45 12.428 201.45 13.898V18H200.26V10.44H201.114L201.296 11.602C201.842 10.818 202.626 10.412 203.718 10.412Z" fill="#F6F7F7" fill-opacity="0.8"/>
</svg>
