<svg width="144" height="46" viewBox="0 0 144 46" fill="none" xmlns="http://www.w3.org/2000/svg">
<rect x="0.9" y="10.8453" width="35.3404" height="34.7547" rx="6.6" fill="#74BDE0" stroke="url(#paint0_linear_48_58)" stroke-width="0.8"/>
<rect x="4.77231" y="6.18934" width="35.3404" height="34.7547" rx="6.6" fill="#C9E0F5" stroke="url(#paint1_linear_48_58)" stroke-width="0.8"/>
<rect x="10.2267" y="0.4" width="35.3404" height="34.7547" rx="6.6" fill="#F6F7F7" stroke="url(#paint2_linear_48_58)" stroke-width="0.8"/>
<path d="M65.9004 12.7829H58.2534V33.1944H61.6323V26.2836H65.9004C69.9611 26.2836 72.9843 23.3968 72.9843 19.5478C72.9843 15.6696 69.9314 12.7829 65.9004 12.7829ZM65.7522 23.1052H61.6323V15.9612H65.7522C67.9752 15.9612 69.5165 17.4775 69.5165 19.5478C69.5165 21.589 67.9752 23.1052 65.7522 23.1052Z" fill="#F6F7F7"/>
<path d="M76.1331 15.0281H79.512V11.6748H76.1331V15.0281ZM76.1923 33.1944H79.4823V17.4483H76.1923V33.1944Z" fill="#F6F7F7"/>
<path d="M97.2826 33.1944L91.5621 24.9131L96.8676 17.4483H93.2516L89.6059 22.7553L86.0788 17.4483H82.3738L87.6201 25.0589L81.9292 33.1944H85.5749L89.6059 27.2167L93.5776 33.1944H97.2826Z" fill="#F6F7F7"/>
<path d="M99.7825 33.1944H103.072V11.8206H99.7825V33.1944Z" fill="#F6F7F7"/>
<path d="M122.947 25.3797C122.947 20.8017 119.687 17.0693 114.767 17.0693C110.084 17.0693 106.557 20.6267 106.557 25.3214C106.557 30.0452 110.084 33.6026 114.767 33.6026C118.353 33.6026 121.288 31.5614 122.562 28.2373H119.094C118.235 29.6953 116.694 30.57 114.767 30.57C112.159 30.57 110.291 28.9954 109.876 26.4294H122.859C122.918 26.0795 122.947 25.7296 122.947 25.3797ZM114.767 20.0144C117.227 20.0144 119.035 21.414 119.628 23.8051H109.965C110.499 21.4723 112.307 20.0144 114.767 20.0144Z" fill="#F6F7F7"/>
<path d="M126.382 15.0281H129.76V11.6748H126.382V15.0281ZM126.441 33.1944H129.731V17.4483H126.441V33.1944Z" fill="#F6F7F7"/>
<path d="M142.077 17.3609C139.884 17.3609 138.313 18.119 137.157 19.6061L136.624 17.4483H134.401V33.1944H137.691V24.8256C137.691 21.968 139.024 20.4226 141.751 20.4226H143.5V17.3609H142.077Z" fill="#F6F7F7"/>
<defs>
<linearGradient id="paint0_linear_48_58" x1="33.8948" y1="10.4453" x2="0.431528" y2="44.4599" gradientUnits="userSpaceOnUse">
<stop stop-color="#10293C"/>
<stop offset="1" stop-color="#10293C" stop-opacity="0"/>
</linearGradient>
<linearGradient id="paint1_linear_48_58" x1="37.7672" y1="5.78935" x2="4.30384" y2="39.8039" gradientUnits="userSpaceOnUse">
<stop stop-color="#10293C"/>
<stop offset="1" stop-color="#10293C" stop-opacity="0"/>
</linearGradient>
<linearGradient id="paint2_linear_48_58" x1="43.2215" y1="1.09716e-05" x2="9.75819" y2="34.0146" gradientUnits="userSpaceOnUse">
<stop stop-color="#10293C"/>
<stop offset="1" stop-color="#10293C" stop-opacity="0"/>
</linearGradient>
</defs>
</svg>
